<?xml version="1.0" standalone="no"?>
<!DOCTYPE svg PUBLIC "-//W3C//DTD SVG 20010904//EN"
 "http://www.w3.org/TR/2001/REC-SVG-20010904/DTD/svg10.dtd">
<svg version="1.0" xmlns="http://www.w3.org/2000/svg"
 width="226.000000pt" height="50.000000pt" viewBox="0 0 226.000000 50.000000"
 preserveAspectRatio="xMidYMid meet">

<g transform="translate(0.000000,50.000000) scale(0.100000,-0.100000)"
fill="#000000" stroke="none">
<path d="M135 363 c-11 -3 -30 -14 -42 -26 -20 -18 -23 -31 -23 -94 0 -89 9
-109 56 -122 71 -20 128 10 140 74 10 56 1 67 -53 63 -41 -3 -48 -6 -51 -25
-3 -19 1 -23 22 -23 29 0 30 -3 16 -31 -12 -21 -50 -25 -68 -7 -16 16 -16 120
0 136 17 17 53 15 68 -3 7 -8 25 -15 40 -15 23 0 27 3 23 21 -10 36 -79 64
-128 52z"/>
<path d="M387 363 c-9 -14 -87 -225 -87 -234 0 -5 12 -9 26 -9 17 0 28 6 31
20 8 29 97 29 113 0 6 -12 21 -20 35 -20 14 0 25 1 25 3 0 2 -20 57 -44 123
-39 106 -46 119 -69 122 -14 2 -27 -1 -30 -5z m52 -140 c1 -8 -11 -13 -28 -13
l-30 0 16 47 16 47 13 -34 c7 -19 13 -41 13 -47z"/>
<path d="M550 346 c0 -21 6 -25 33 -28 l32 -3 3 -97 c3 -97 3 -98 27 -98 25 0
25 0 25 100 l0 100 35 0 c31 0 35 3 35 25 0 25 0 25 -95 25 -94 0 -95 0 -95
-24z"/>
<path d="M843 362 c-52 -16 -63 -36 -63 -121 0 -85 9 -103 58 -122 32 -12 85
-2 111 22 18 17 21 32 21 98 0 68 -3 80 -22 98 -26 24 -72 34 -105 25z m65
-54 c16 -16 16 -120 0 -136 -15 -15 -51 -15 -66 0 -7 7 -12 37 -12 68 0 60 11
80 45 80 12 0 26 -5 33 -12z"/>
<path d="M1010 345 c0 -22 4 -25 35 -25 l35 0 0 -100 0 -100 25 0 25 0 0 100
0 100 35 0 c31 0 35 3 35 25 0 25 0 25 -95 25 -95 0 -95 0 -95 -25z"/>
<path d="M1250 245 l0 -125 24 0 c22 0 25 5 28 47 2 25 8 48 15 50 7 3 26 -18
44 -46 25 -42 36 -51 60 -51 16 0 29 2 29 5 0 2 -18 34 -40 70 -22 36 -40 69
-40 73 0 4 18 26 40 47 22 21 40 43 40 47 0 4 -13 8 -29 8 -21 0 -39 -12 -70
-45 -23 -25 -44 -45 -46 -45 -3 0 -5 20 -5 45 0 41 -2 45 -25 45 l-25 0 0
-125z"/>
<path d="M1549 343 c-20 -52 -79 -215 -79 -219 0 -2 12 -4 26 -4 17 0 28 6 31
20 4 17 14 20 58 20 44 0 54 -3 58 -20 3 -14 14 -20 32 -20 30 0 32 -9 -25
145 -33 90 -40 100 -63 103 -22 3 -29 -2 -38 -25z m60 -120 c1 -7 -10 -13 -24
-13 -29 0 -29 0 -13 53 l12 40 12 -34 c7 -19 13 -40 13 -46z"/>
<path d="M1782 355 c-38 -17 -52 -48 -52 -115 0 -70 14 -98 57 -116 30 -13 44
-14 75 -5 36 11 68 43 68 68 0 21 -48 15 -60 -7 -12 -22 -49 -27 -68 -8 -7 7
-12 37 -12 68 0 31 5 61 12 68 17 17 53 15 68 -3 14 -16 60 -21 60 -6 0 6 -10
21 -22 35 -29 31 -82 41 -126 21z"/>
<path d="M2047 363 c-9 -14 -87 -225 -87 -234 0 -5 12 -9 26 -9 17 0 28 6 31
20 8 29 97 29 113 0 6 -12 21 -20 35 -20 14 0 25 1 25 3 0 2 -20 57 -44 123
-39 106 -46 119 -69 122 -14 2 -27 -1 -30 -5z m52 -140 c1 -8 -11 -13 -28 -13
l-30 0 16 47 16 47 13 -34 c7 -19 13 -41 13 -47z"/>
</g>
</svg>
